<svg width="30" height="22" viewBox="0 0 30 22" fill="none" xmlns="http://www.w3.org/2000/svg">
<path fill-rule="evenodd" clip-rule="evenodd" d="M19.0609 1.02856C19.0023 0.89519 18.9061 0.781767 18.7841 0.702144C18.6621 0.622522 18.5196 0.580148 18.3739 0.5802H14.2491V2.07972H17.8842L19.2011 5.07876H17.7979C16.5129 5.07881 15.2546 5.44631 14.1716 6.13791C13.0886 6.82951 12.2261 7.81635 11.6858 8.98201L9.41343 6.78896C9.27359 6.65382 9.08671 6.57828 8.89222 6.57828H2.24987C2.05097 6.57828 1.86021 6.65727 1.71957 6.79788C1.57893 6.93848 1.49991 7.12919 1.49991 7.32804V10.3271C1.49991 10.5259 1.57893 10.7166 1.71957 10.8572C1.86021 10.9978 2.05097 11.0768 2.24987 11.0768H9.12695C9.00694 11.4162 8.97014 11.7794 9.01965 12.1359C9.06917 12.4924 9.20354 12.8319 9.41148 13.1257C9.61942 13.4195 9.89486 13.6592 10.2147 13.8245C10.5345 13.9899 10.8893 14.0761 11.2493 14.0759H12.3083L13.3499 15.9503H9.69242C9.50072 14.7397 8.85993 13.6457 7.89768 12.8863C6.93543 12.1268 5.72234 11.7576 4.50002 11.8521C3.2777 11.9467 2.13586 12.4981 1.30192 13.3965C0.467984 14.2949 0.00315035 15.4744 4.64505e-06 16.7C-0.00169087 17.9286 0.460837 19.1125 1.295 20.0147C2.12916 20.9169 3.27339 21.4709 4.49865 21.5657C5.7239 21.6604 6.93975 21.2891 7.90281 20.5259C8.86586 19.7627 9.50505 18.664 9.69242 17.4498H16.874C16.9855 17.4497 17.0956 17.4248 17.1963 17.3768C17.297 17.3288 17.3857 17.259 17.4559 17.1724L22.0367 11.5364L22.5001 12.5913C21.4656 13.2523 20.7187 14.2793 20.4086 15.4669C20.0985 16.6545 20.2481 17.9154 20.8275 18.9976C21.4069 20.0797 22.3734 20.9034 23.5338 21.3042C24.6943 21.7049 25.9633 21.6531 27.0872 21.1591C28.2111 20.6651 29.1072 19.7653 29.5964 18.6395C30.0855 17.5137 30.1318 16.2448 29.7258 15.0864C29.3199 13.928 28.4917 12.9654 27.4067 12.391C26.3217 11.8165 25.0599 11.6726 23.8733 11.9878L22.5699 9.02024L27.1589 9.72577L26.0864 3.29958L20.929 5.28269L19.0609 1.02856ZM14.0242 14.0759L15.0651 15.9503H16.517L20.4775 11.0768H17.9989V11.8266C17.9989 12.4231 17.7619 12.9953 17.3399 13.4171C16.918 13.8389 16.3458 14.0759 15.7491 14.0759H14.0242ZM15.7491 12.5764C15.948 12.5764 16.1387 12.4974 16.2794 12.3568C16.42 12.2161 16.499 12.0254 16.499 11.8266V11.0768H11.2493C11.0504 11.0768 10.8597 11.1558 10.719 11.2964C10.5784 11.437 10.4994 11.6277 10.4994 11.8266C10.4994 12.0254 10.5784 12.2161 10.719 12.3568C10.8597 12.4974 11.0504 12.5764 11.2493 12.5764H15.7491ZM17.7979 6.57828C16.8055 6.57825 15.8335 6.86013 14.9952 7.3911C14.1568 7.92206 13.4867 8.68024 13.0627 9.57731H21.1772L19.8596 6.57828H17.7979ZM21.5327 6.657L21.8552 7.39327L25.338 7.92934L24.9105 5.35842L21.5327 6.657ZM4.87471 13.3261C5.63955 13.3261 6.38172 13.5858 6.9797 14.0625C7.57768 14.5392 7.99603 15.2048 8.16626 15.9503H4.87471C4.67581 15.9503 4.48506 16.0293 4.34441 16.1699C4.20377 16.3105 4.12476 16.5012 4.12476 16.7C4.12476 16.8989 4.20377 17.0896 4.34441 17.2302C4.48506 17.3708 4.67581 17.4498 4.87471 17.4498H8.16626C7.98017 18.2571 7.50361 18.9678 6.82731 19.4465C6.15102 19.9253 5.32223 20.1387 4.49875 20.046C3.67527 19.9534 2.91462 19.5613 2.36163 18.9443C1.80864 18.3273 1.50194 17.5285 1.49991 16.7C1.49991 15.8052 1.85547 14.947 2.48837 14.3143C3.12127 13.6816 3.97966 13.3261 4.87471 13.3261ZM21.7487 16.7C21.7487 15.5896 22.2857 14.6037 23.1136 13.9889L24.4365 17.0014C24.5165 17.1836 24.6655 17.3265 24.8509 17.3988C25.0363 17.4711 25.2428 17.4667 25.425 17.3868C25.6072 17.3069 25.7501 17.1579 25.8224 16.9725C25.8947 16.7872 25.8904 16.5808 25.8104 16.3986L24.4875 13.3861C25.1698 13.2552 25.8759 13.338 26.5093 13.6232C27.1427 13.9084 27.6727 14.3821 28.0269 14.9796C28.381 15.5772 28.5421 16.2694 28.4881 16.9618C28.4341 17.6543 28.1676 18.3132 27.7251 18.8486C27.2826 19.384 26.6856 19.7699 26.0156 19.9535C25.3456 20.1371 24.6352 20.1095 23.9815 19.8744C23.3278 19.6394 22.7625 19.2084 22.3629 18.6403C21.9633 18.0722 21.7488 17.3946 21.7487 16.7ZM8.58924 8.0778L10.1431 9.57731H2.99982V8.0778H8.58924Z" fill="white"/>
</svg>
