<svg width="26" height="27" viewBox="0 0 26 27" fill="none" xmlns="http://www.w3.org/2000/svg">
<path d="M2.375 12.3553V16.1053C2.375 20.8191 2.375 23.1766 3.84 24.6403C5.30375 26.1053 7.66125 26.1053 12.375 26.1053H13.625C18.3387 26.1053 20.6962 26.1053 22.16 24.6403C23.625 23.1766 23.625 20.8191 23.625 16.1053V12.3553" stroke="white" stroke-width="1.5"/>
<path d="M9.87525 1.10535H16.1253L16.9403 9.2516C16.9939 9.8013 16.932 10.3562 16.7584 10.8805C16.5849 11.4048 16.3035 11.8871 15.9324 12.2962C15.5613 12.7052 15.1088 13.0322 14.6038 13.2559C14.0988 13.4796 13.5526 13.5952 13.0003 13.5952C12.4479 13.5952 11.9017 13.4796 11.3967 13.2559C10.8918 13.0322 10.4392 12.7052 10.0681 12.2962C9.69701 11.8871 9.41564 11.4048 9.24206 10.8805C9.06849 10.3562 9.00656 9.8013 9.06025 9.2516L9.87525 1.10535Z" stroke="white" stroke-width="1.5"/>
<path d="M2.16253 5.2941C2.38503 4.1816 2.49628 3.62535 2.72253 3.1741C2.95827 2.70414 3.29021 2.28902 3.69678 1.95566C4.10336 1.6223 4.57549 1.37817 5.08253 1.2391C5.57003 1.10535 6.13753 1.10535 7.27253 1.10535H9.87503L8.96878 10.1616C8.92095 10.6799 8.76785 11.183 8.51885 11.64C8.26984 12.0971 7.93018 12.4985 7.52064 12.8197C7.11111 13.141 6.64032 13.3752 6.1371 13.5082C5.63388 13.6412 5.10882 13.67 4.59406 13.593C4.0793 13.516 3.58567 13.3348 3.14339 13.0604C2.70111 12.786 2.31949 12.4242 2.02189 11.9972C1.72429 11.5701 1.51697 11.0869 1.41262 10.577C1.30827 10.067 1.30909 9.54119 1.41503 9.0316L2.16253 5.2941ZM23.8375 5.2941C23.615 4.1816 23.5038 3.62535 23.2775 3.1741C23.0418 2.70414 22.7098 2.28902 22.3033 1.95566C21.8967 1.6223 21.4246 1.37817 20.9175 1.2391C20.43 1.10535 19.8625 1.10535 18.7275 1.10535H16.125L17.0313 10.1616C17.0791 10.6799 17.2322 11.183 17.4812 11.64C17.7302 12.0971 18.0699 12.4985 18.4794 12.8197C18.889 13.141 19.3597 13.3752 19.863 13.5082C20.3662 13.6412 20.8912 13.67 21.406 13.593C21.9208 13.516 22.4144 13.3348 22.8567 13.0604C23.2989 12.786 23.6806 12.4242 23.9782 11.9972C24.2758 11.5701 24.4831 11.0869 24.5874 10.577C24.6918 10.067 24.691 9.54119 24.585 9.0316L23.8375 5.2941Z" stroke="white" stroke-width="1.5"/>
<path d="M9.875 25.4803V21.7303C9.875 20.5616 9.875 19.9778 10.1263 19.5428C10.2908 19.2578 10.5275 19.0212 10.8125 18.8566C11.2475 18.6053 11.8312 18.6053 13 18.6053C14.1688 18.6053 14.7525 18.6053 15.1875 18.8566C15.4725 19.0212 15.7092 19.2578 15.8737 19.5428C16.125 19.9778 16.125 20.5616 16.125 21.7303V25.4803" stroke="white" stroke-width="1.5" stroke-linecap="round"/>
</svg>
