<svg width="231" height="230" viewBox="0 0 231 230" fill="none" xmlns="http://www.w3.org/2000/svg">
<path d="M140.242 135.246L140.678 135.667H141.283H148.232L194.555 182.082L182.395 194.242L135.979 147.919V140.971V140.365L135.559 139.93L132.971 137.246L131.988 136.227L130.914 137.15C120.25 146.317 106.411 151.833 91.3542 151.833C79.3307 151.833 67.5773 148.268 57.5802 141.588C47.583 134.908 39.7912 125.414 35.19 114.306C30.5888 103.197 29.385 90.9743 31.7306 79.1818C34.0763 67.3894 39.8661 56.5574 48.368 48.0555C56.8699 39.5536 67.7019 33.7638 79.4943 31.4181C91.2868 29.0725 103.51 30.2763 114.618 34.8775C125.726 39.4787 135.221 47.2705 141.901 57.2677C148.58 67.2648 152.146 79.0182 152.146 91.0417V91.0428C152.156 105.563 146.945 119.603 137.464 130.6L136.538 131.674L137.559 132.659L140.242 135.246ZM46.7292 91.0417C46.7292 115.733 66.6633 135.667 91.3542 135.667C116.045 135.667 135.979 115.733 135.979 91.0417C135.979 66.3508 116.045 46.4167 91.3542 46.4167C66.6633 46.4167 46.7292 66.3508 46.7292 91.0417Z" fill="white" stroke="#0083B8" stroke-width="3"/>
</svg>
