<svg width="231" height="212" viewBox="0 0 231 212" fill="none" xmlns="http://www.w3.org/2000/svg">
<path fill-rule="evenodd" clip-rule="evenodd" d="M188.146 203.743V61.7696H218.813V203.743H188.146ZM130.646 203.743V92.4668H161.313V203.743H130.646ZM73.146 203.743V123.163H103.813V203.743H73.146ZM15.646 203.743V157.698H46.3127V203.743H15.646ZM226.479 203.743V54.0955H180.479V203.743H168.979V84.7923H122.979V203.743H111.479V115.489H65.4792V203.743H53.9792V150.023H7.97915V203.743H4.14582C2.02982 203.743 0.3125 205.458 0.3125 207.58C0.3125 209.702 2.02982 211.417 4.14582 211.417H7.97915H53.9792H65.4792H111.479H122.979H168.979H180.479H226.479C228.595 211.417 230.312 209.702 230.312 207.58C230.312 205.458 228.595 203.743 226.479 203.743Z" fill="white"/>
<path fill-rule="evenodd" clip-rule="evenodd" d="M31.0174 97.4033C31.6633 97.4033 32.3246 97.2389 32.9247 96.8911L171.557 16.8514L162.88 35.9248C162.005 37.8475 162.853 40.1141 164.776 40.9856C165.288 41.2226 165.827 41.3296 166.359 41.3296C167.811 41.3296 169.199 40.4963 169.841 39.0897L183.456 9.16083C183.498 9.06528 183.49 8.96206 183.525 8.86269C183.597 8.6601 183.655 8.46516 183.693 8.25113C183.712 8.14412 183.773 8.05619 183.781 7.94535C183.785 7.89948 183.766 7.86128 183.769 7.8154C183.777 7.67016 183.762 7.53638 183.754 7.39111C183.743 7.18087 183.708 6.98211 183.662 6.7719C183.632 6.62666 183.624 6.47759 183.574 6.33617C183.529 6.19857 183.448 6.08388 183.387 5.95011C183.337 5.86221 183.337 5.75898 183.284 5.66726C183.23 5.57554 183.139 5.52202 183.078 5.43409C182.997 5.31561 182.936 5.18945 182.841 5.08243C182.741 4.96777 182.615 4.88749 182.5 4.7843C182.344 4.64288 182.187 4.51293 182.011 4.39824C181.893 4.32177 181.786 4.2377 181.656 4.17271C181.614 4.15359 181.591 4.11536 181.549 4.09625C181.453 4.05419 181.35 4.06184 181.254 4.02743C181.044 3.95097 180.838 3.89748 180.62 3.85925C180.52 3.84014 180.44 3.78279 180.337 3.77514L147.61 0.60262C145.489 0.388562 143.639 1.94043 143.436 4.03508C143.23 6.13737 144.77 8.00649 146.869 8.20908L167.723 10.2311L29.1025 90.2708C27.2716 91.3258 26.6485 93.665 27.7035 95.4921C28.4106 96.7191 29.6949 97.4033 31.0175 97.4033H31.0174Z" fill="white"/>
</svg>
