<svg width="231" height="176" viewBox="0 0 231 176" fill="none" xmlns="http://www.w3.org/2000/svg">
<path d="M2.8125 98.0063H18.2812H20.7812V100.506V102.344C20.8855 106.371 22.5568 110.2 25.4404 113.014C28.3309 115.835 32.2102 117.414 36.2493 117.413L37.8347 117.412L38.5111 118.846L60.0713 164.554C61.3298 167.207 63.3113 169.452 65.788 171.03C68.2622 172.606 71.1306 173.454 74.0642 173.475H83.1017C87.1794 173.44 91.0786 171.796 93.9506 168.901C96.8249 166.004 98.4376 162.088 98.4375 158.006V121.638V117.946L101.865 119.316L189.262 154.246C189.263 154.246 189.264 154.247 189.265 154.247M2.8125 98.0063L189.265 154.247M2.8125 98.0063V59.8813H18.2812H20.7812V57.3813V55.9438C20.7812 51.8413 22.411 47.9067 25.3119 45.0058C28.2129 42.1048 32.1474 40.4751 36.25 40.4751H93.031C93.0311 40.4751 93.0312 40.4751 93.0312 40.4751C95.6166 40.4753 98.1775 39.9752 100.573 39.0023C100.577 39.0005 100.582 38.9987 100.586 38.9969L189.254 4.07617L189.287 4.06311L189.32 4.04911C191.65 3.05378 194.189 2.64608 196.713 2.86186C199.23 3.07692 201.655 3.90476 203.777 5.27292C205.854 6.68159 207.557 8.57449 208.739 10.7884C209.924 13.0078 210.55 15.4827 210.562 17.9986V140.288C210.487 142.731 209.833 145.121 208.655 147.263C207.472 149.414 205.793 151.254 203.758 152.628C201.188 154.359 198.171 155.309 195.073 155.363M2.8125 98.0063L195.073 155.363M189.265 154.247C191.113 154.982 193.084 155.361 195.073 155.363M189.265 154.247L195.073 155.363M215.994 94.2093V63.6784C219.169 64.1984 222.127 65.7009 224.432 68.0058C227.333 70.9067 228.962 74.8413 228.962 78.9438C228.962 83.0464 227.333 86.9809 224.432 89.8819C222.127 92.1868 219.169 93.6892 215.994 94.2093ZM85.4688 55.9438V53.4438H82.9688H36.25H33.75V55.9438V102.375V104.875H36.25H82.9688H85.4688V102.375V55.9438ZM82.9688 160.506H85.4688V158.006V119.913V117.413H82.9688H56.2313H52.3147L53.9636 120.965L71.6449 159.059L72.3167 160.506H73.9125H82.9688ZM105.119 106.757L105.223 106.811L105.332 106.854L194.169 142.217L197.594 143.58V139.894V17.9938V14.3079L194.169 15.6711L105.342 51.0296C105.34 51.0302 105.338 51.0309 105.337 51.0315C103.747 51.6562 102.106 52.1439 100.432 52.4891L98.4375 52.9007V54.9376V102.375V104.223L100.204 104.765C101.897 105.285 103.541 105.951 105.119 106.757Z" fill="white" stroke="#0083B8" stroke-width="5"/>
</svg>
