<svg width="231" height="170" viewBox="0 0 231 170" fill="none" xmlns="http://www.w3.org/2000/svg">
<path fill-rule="evenodd" clip-rule="evenodd" d="M211.136 138.666C209.02 138.666 207.303 136.949 207.303 134.833V12.1665C207.303 10.0582 205.586 8.33321 203.47 8.33321H27.1551C25.0394 8.33321 23.3222 10.0582 23.3222 12.1665V134.833C23.3222 136.949 21.6051 138.666 19.4893 138.666C17.3735 138.666 15.6564 136.949 15.6564 134.833V12.1665C15.6564 5.82621 20.8155 0.666535 27.1552 0.666535H203.47C209.81 0.666535 214.969 5.82621 214.969 12.1665V134.833C214.969 136.949 213.252 138.666 211.136 138.666H211.136Z" fill="white"/>
<path fill-rule="evenodd" clip-rule="evenodd" d="M211.146 169.323H19.4792C8.90685 169.323 0.3125 160.729 0.3125 150.156C0.3125 148.04 2.02982 146.323 4.14582 146.323H88.4791C90.5951 146.323 92.3125 148.04 92.3125 150.156C92.3125 152.272 90.5951 153.99 88.4791 153.99H8.63847C10.2178 158.452 14.4805 161.656 19.4791 161.656H211.146C216.144 161.656 220.407 158.452 221.986 153.99H142.146C140.03 153.99 138.312 152.272 138.312 150.156C138.312 148.04 140.03 146.323 142.146 146.323H226.479C228.595 146.323 230.312 148.04 230.312 150.156C230.312 160.729 221.718 169.323 211.146 169.323Z" fill="white"/>
<path fill-rule="evenodd" clip-rule="evenodd" d="M80.8 110.279C79.9034 110.279 79.0067 109.965 78.2786 109.329L47.6233 82.5013C46.7879 81.7731 46.3127 80.7307 46.3127 79.6193C46.3127 78.5079 46.7879 77.4654 47.6233 76.7372L78.2786 49.9098C79.865 48.5071 82.2791 48.6604 83.6893 50.27C85.0841 51.8644 84.9231 54.2788 83.3291 55.6739L55.9615 79.6193L83.3214 103.565C84.9155 104.96 85.0764 107.374 83.6816 108.969C82.9229 109.835 81.8653 110.279 80.8 110.279L80.8 110.279Z" fill="white"/>
<path fill-rule="evenodd" clip-rule="evenodd" d="M103.806 117.967C103.408 117.967 103.001 117.906 102.594 117.775C100.585 117.1 99.5032 114.93 100.171 112.921L123.183 43.8989C123.85 41.8896 126.005 40.7929 128.03 41.4754C130.04 42.1503 131.122 44.3207 130.454 46.33L107.442 115.352C106.905 116.947 105.41 117.967 103.806 117.967Z" fill="white"/>
<path fill-rule="evenodd" clip-rule="evenodd" d="M149.804 110.279C148.738 110.279 147.68 109.835 146.921 108.968C145.525 107.374 145.686 104.96 147.281 103.565L174.658 79.6207L147.281 55.6764C145.686 54.2815 145.525 51.8671 146.921 50.2729C148.316 48.6633 150.739 48.5177 152.334 49.9127L183.009 76.7388C183.837 77.4669 184.312 78.5093 184.312 79.6207C184.312 80.732 183.837 81.7744 183.001 82.5026L152.327 109.329C151.598 109.965 150.701 110.279 149.804 110.279H149.804Z" fill="white"/>
</svg>
