<svg width="24" height="28" viewBox="0 0 24 28" fill="none" xmlns="http://www.w3.org/2000/svg">
<path d="M20.75 7.10535H18.25C18.25 3.60535 15.5 0.855347 12 0.855347C8.5 0.855347 5.75 3.60535 5.75 7.10535H3.25C1.875 7.10535 0.75 8.23035 0.75 9.60535V24.6053C0.75 25.9803 1.875 27.1053 3.25 27.1053H20.75C22.125 27.1053 23.25 25.9803 23.25 24.6053V9.60535C23.25 8.23035 22.125 7.10535 20.75 7.10535ZM12 3.35535C14.125 3.35535 15.75 4.98035 15.75 7.10535H8.25C8.25 4.98035 9.875 3.35535 12 3.35535ZM20.75 24.6053H3.25V9.60535H20.75V24.6053ZM12 14.6053C9.875 14.6053 8.25 12.9803 8.25 10.8553H5.75C5.75 14.3553 8.5 17.1053 12 17.1053C15.5 17.1053 18.25 14.3553 18.25 10.8553H15.75C15.75 12.9803 14.125 14.6053 12 14.6053Z" fill="white"/>
</svg>
