<svg width="28" height="26" viewBox="0 0 28 26" fill="none" xmlns="http://www.w3.org/2000/svg">
<path fill-rule="evenodd" clip-rule="evenodd" d="M24 2.60535H4C3.66848 2.60535 3.35054 2.73704 3.11612 2.97146C2.8817 3.20588 2.75 3.52383 2.75 3.85535V21.3553C2.75 21.6869 2.8817 22.0048 3.11612 22.2392C3.35054 22.4737 3.66848 22.6053 4 22.6053H24C24.3315 22.6053 24.6495 22.4737 24.8839 22.2392C25.1183 22.0048 25.25 21.6869 25.25 21.3553V3.85535C25.25 3.52383 25.1183 3.20588 24.8839 2.97146C24.6495 2.73704 24.3315 2.60535 24 2.60535ZM4 0.105347C3.00544 0.105347 2.05161 0.500435 1.34835 1.2037C0.645088 1.90696 0.25 2.86078 0.25 3.85535V21.3553C0.25 22.3499 0.645088 23.3037 1.34835 24.007C2.05161 24.7103 3.00544 25.1053 4 25.1053H24C24.9946 25.1053 25.9484 24.7103 26.6517 24.007C27.3549 23.3037 27.75 22.3499 27.75 21.3553V3.85535C27.75 2.86078 27.3549 1.90696 26.6517 1.2037C25.9484 0.500435 24.9946 0.105347 24 0.105347H4ZM6.5 6.35535H9V8.85535H6.5V6.35535ZM12.75 6.35535C12.4185 6.35535 12.1005 6.48704 11.8661 6.72146C11.6317 6.95588 11.5 7.27383 11.5 7.60535C11.5 7.93687 11.6317 8.25481 11.8661 8.48923C12.1005 8.72365 12.4185 8.85535 12.75 8.85535H20.25C20.5815 8.85535 20.8995 8.72365 21.1339 8.48923C21.3683 8.25481 21.5 7.93687 21.5 7.60535C21.5 7.27383 21.3683 6.95588 21.1339 6.72146C20.8995 6.48704 20.5815 6.35535 20.25 6.35535H12.75ZM9 11.3553H6.5V13.8553H9V11.3553ZM11.5 12.6053C11.5 12.2738 11.6317 11.9559 11.8661 11.7215C12.1005 11.487 12.4185 11.3553 12.75 11.3553H20.25C20.5815 11.3553 20.8995 11.487 21.1339 11.7215C21.3683 11.9559 21.5 12.2738 21.5 12.6053C21.5 12.9369 21.3683 13.2548 21.1339 13.4892C20.8995 13.7236 20.5815 13.8553 20.25 13.8553H12.75C12.4185 13.8553 12.1005 13.7236 11.8661 13.4892C11.6317 13.2548 11.5 12.9369 11.5 12.6053ZM9 16.3553H6.5V18.8553H9V16.3553ZM11.5 17.6053C11.5 17.2738 11.6317 16.9559 11.8661 16.7215C12.1005 16.487 12.4185 16.3553 12.75 16.3553H20.25C20.5815 16.3553 20.8995 16.487 21.1339 16.7215C21.3683 16.9559 21.5 17.2738 21.5 17.6053C21.5 17.9369 21.3683 18.2548 21.1339 18.4892C20.8995 18.7237 20.5815 18.8553 20.25 18.8553H12.75C12.4185 18.8553 12.1005 18.7237 11.8661 18.4892C11.6317 18.2548 11.5 17.9369 11.5 17.6053Z" fill="white"/>
</svg>
