<svg width="30" height="31" viewBox="0 0 30 31" fill="none" xmlns="http://www.w3.org/2000/svg">
<g clip-path="url(#clip0_99_1050)">
<path d="M26.7188 4.54289C26.3964 4.33436 26.0278 4.2082 25.6453 4.17551C25.2627 4.14281 24.8781 4.20459 24.525 4.35539L12.9562 8.91164C12.6824 9.02311 12.3895 9.08042 12.0938 9.08039H4.6875C4.0659 9.08039 3.46976 9.32732 3.03022 9.76686C2.59068 10.2064 2.34375 10.8025 2.34375 11.4241V11.6116H0V17.2366H2.34375V17.4804C2.35844 18.0922 2.61184 18.674 3.04979 19.1014C3.48775 19.5289 4.07552 19.7681 4.6875 19.7679L7.5 25.7304C7.69044 26.1319 7.99027 26.4716 8.36505 26.7104C8.73983 26.9492 9.17437 27.0774 9.61875 27.0804H10.8C11.4183 27.0754 12.0097 26.8263 12.4452 26.3873C12.8807 25.9483 13.125 25.355 13.125 24.7366V19.9929L24.525 24.5491C24.8054 24.6607 25.1045 24.718 25.4062 24.7179C25.8745 24.7103 26.3304 24.567 26.7188 24.3054C27.0271 24.0972 27.2815 23.8185 27.4609 23.4925C27.6402 23.1664 27.7393 22.8024 27.75 22.4304V6.47414C27.7483 6.09261 27.6534 5.71727 27.4737 5.38071C27.294 5.04415 27.0349 4.75655 26.7188 4.54289ZM10.7812 11.4241V17.4804H4.6875V11.4241H10.7812ZM10.7812 24.7366H9.6L7.29375 19.7679H10.7812V24.7366ZM13.8187 17.7616C13.5961 17.6479 13.364 17.5538 13.125 17.4804V11.2929C13.3617 11.2441 13.5938 11.1751 13.8187 11.0866L25.4062 6.47414V22.3741L13.8187 17.7616ZM27.8062 12.0804V16.7679C28.4279 16.7679 29.024 16.521 29.4635 16.0814C29.9031 15.6419 30.15 15.0457 30.15 14.4241C30.15 13.8025 29.9031 13.2064 29.4635 12.7669C29.024 12.3273 28.4279 12.0804 27.8062 12.0804Z" fill="white"/>
</g>
<defs>
<clipPath id="clip0_99_1050">
<rect width="30" height="30" fill="white" transform="translate(0 0.605347)"/>
</clipPath>
</defs>
</svg>
