<svg width="26" height="26" viewBox="0 0 26 26" fill="none" xmlns="http://www.w3.org/2000/svg">
<path d="M21.8125 3.7428C20.6665 2.58521 19.3015 1.66738 17.797 1.04286C16.2926 0.418342 14.6789 0.0996245 13.05 0.105299C6.225 0.105299 0.6625 5.6678 0.6625 12.4928C0.6625 14.6803 1.2375 16.8053 2.3125 18.6803L0.5625 25.1053L7.125 23.3803C8.9375 24.3678 10.975 24.8928 13.05 24.8928C19.875 24.8928 25.4375 19.3303 25.4375 12.5053C25.4375 9.1928 24.15 6.0803 21.8125 3.7428ZM13.05 22.7928C11.2 22.7928 9.3875 22.2928 7.8 21.3553L7.425 21.1303L3.525 22.1553L4.5625 18.3553L4.3125 17.9678C3.28468 16.3265 2.73893 14.4294 2.7375 12.4928C2.7375 6.8178 7.3625 2.1928 13.0375 2.1928C15.7875 2.1928 18.375 3.2678 20.3125 5.2178C21.2719 6.17275 22.0321 7.30863 22.5492 8.55958C23.0664 9.81053 23.33 11.1517 23.325 12.5053C23.35 18.1803 18.725 22.7928 13.05 22.7928ZM18.7 15.0928C18.3875 14.9428 16.8625 14.1928 16.5875 14.0803C16.3 13.9803 16.1 13.9303 15.8875 14.2303C15.675 14.5428 15.0875 15.2428 14.9125 15.4428C14.7375 15.6553 14.55 15.6803 14.2375 15.5178C13.925 15.3678 12.925 15.0303 11.75 13.9803C10.825 13.1553 10.2125 12.1428 10.025 11.8303C9.85 11.5178 10 11.3553 10.1625 11.1928C10.3 11.0553 10.475 10.8303 10.625 10.6553C10.775 10.4803 10.8375 10.3428 10.9375 10.1428C11.0375 9.9303 10.9875 9.7553 10.9125 9.6053C10.8375 9.4553 10.2125 7.9303 9.9625 7.3053C9.7125 6.7053 9.45 6.7803 9.2625 6.7678H8.6625C8.45 6.7678 8.125 6.8428 7.8375 7.1553C7.5625 7.4678 6.7625 8.2178 6.7625 9.7428C6.7625 11.2678 7.875 12.7428 8.025 12.9428C8.175 13.1553 10.2125 16.2803 13.3125 17.6178C14.05 17.9428 14.625 18.1303 15.075 18.2678C15.8125 18.5053 16.4875 18.4678 17.025 18.3928C17.625 18.3053 18.8625 17.6428 19.1125 16.9178C19.375 16.1928 19.375 15.5803 19.2875 15.4428C19.2 15.3053 19.0125 15.2428 18.7 15.0928Z" fill="white"/>
</svg>
